<svg xmlns="http://www.w3.org/2000/svg" viewBox="0 0 48 48">
  <path fill="currentColor" d="M24,10c-7.73,0-14,6.27-14,14c0,6.18,4.01,11.42,9.56,13.28c0.7,0.13,0.95-0.3,0.95-0.67c0-0.33-0.01-1.21-0.02-2.38
    c-3.89,0.84-4.71-1.87-4.71-1.87c-0.64-1.62-1.55-2.05-1.55-2.05c-1.27-0.87,0.1-0.85,0.1-0.85c1.4,0.1,2.14,1.44,2.14,1.44
    c1.24,2.13,3.26,1.52,4.06,1.16c0.13-0.9,0.49-1.52,0.89-1.87c-3.1-0.35-6.36-1.55-6.36-6.9c0-1.53,0.54-2.77,1.44-3.75
    c-0.14-0.35-0.62-1.77,0.14-3.7c0,0,1.17-0.38,3.85,1.44c1.12-0.31,2.32-0.47,3.51-0.47c1.19,0.01,2.39,0.16,3.51,0.47
    c2.68-1.81,3.85-1.44,3.85-1.44c0.76,1.93,0.28,3.35,0.14,3.7c0.9,0.98,1.44,2.22,1.44,3.75c0,5.36-3.26,6.54-6.37,6.89
    c0.5,0.43,0.95,1.29,0.95,2.59c0,1.87-0.02,3.38-0.02,3.84c0,0.37,0.25,0.81,0.96,0.67C33.99,35.42,38,30.18,38,24
    C38,16.27,31.73,10,24,10z"/>
</svg>