<svg viewBox="0 0 20 20" fill="none" xmlns="http://www.w3.org/2000/svg">
<path d="M5 1.75H11.1719C11.4619 1.75007 11.7415 1.85095 11.9639 2.0332L12.0557 2.11621L15.8838 5.94434C16.1181 6.17869 16.2499 6.49671 16.25 6.82812V17C16.25 17.6904 15.6904 18.25 15 18.25H5C4.30964 18.25 3.75 17.6904 3.75 17V3C3.75 2.30964 4.30964 1.75 5 1.75Z" stroke="currentColor" stroke-width="1.5"/>
<path d="M10.1208 9.07943C10.2592 8.74854 10.6393 8.59182 10.9704 8.72982C11.3014 8.86804 11.4578 9.24833 11.32 9.57943L9.89812 12.9867L9.83562 13.1029C9.66564 13.3526 9.33821 13.457 9.04851 13.3363C8.71722 13.198 8.56063 12.817 8.6989 12.4857L10.1208 9.07943ZM7.2321 8.91635C7.48594 8.66328 7.89743 8.66292 8.15105 8.91635C8.40477 9.17007 8.40454 9.5824 8.15105 9.83627L7.02995 10.9564L8.15105 12.0775L8.23406 12.179C8.40072 12.4312 8.37281 12.7742 8.15105 12.9964C7.92888 13.2186 7.58598 13.2462 7.33366 13.0794L7.2321 12.9964L5.65105 11.4163C5.39751 11.1626 5.39763 10.7512 5.65105 10.4974L7.2321 8.91635ZM11.8522 8.91635C12.106 8.66312 12.5174 8.66308 12.7712 8.91635L14.3522 10.4974C14.6055 10.7511 14.6055 11.1626 14.3522 11.4163L12.7712 12.9964L12.6696 13.0794C12.4173 13.2462 12.0744 13.2186 11.8522 12.9964C11.6302 12.7742 11.6025 12.4313 11.7692 12.179L11.8522 12.0775L12.9733 10.9564L11.8522 9.83627C11.5984 9.58242 11.5984 9.17017 11.8522 8.91635Z" fill="currentColor"/>
<path d="M12 2V5.5C12 6.05228 12.4477 6.5 13 6.5H16" stroke="currentColor" stroke-width="1.5"/>
</svg>
