<svg viewBox="0 0 20 20" fill="none" xmlns="http://www.w3.org/2000/svg">
<path d="M10.3691 1.00977C10.827 1.0552 11.2577 1.25772 11.5859 1.58594L15.4141 5.41406C15.7891 5.78906 15.9999 6.2978 16 6.82812V11H14.5V7.25H12C11.0335 7.25 10.25 6.4665 10.25 5.5V2.50781C10.2242 2.50371 10.1983 2.50002 10.1719 2.5H4C3.72386 2.5 3.5 2.72386 3.5 3V17C3.5 17.2761 3.72386 17.5 4 17.5H9V19H4L3.7959 18.9893C2.85435 18.8938 2.1062 18.1457 2.01074 17.2041L2 17V3C2 1.96435 2.78722 1.113 3.7959 1.01074L4 1H10.1719L10.3691 1.00977ZM17.5 19H10.5V17.5H17.5V19ZM17.5 16.5H10.5V15H17.5V16.5ZM17.5 14H10.5V12.5H17.5V14ZM11.75 5.5C11.75 5.63807 11.8619 5.75 12 5.75H13.6289L11.75 3.87109V5.5Z" fill="currentColor"/>
</svg>
