<svg viewBox="0 0 20 20" fill="none" xmlns="http://www.w3.org/2000/svg">
<path d="M17.2041 2.01074C18.2128 2.113 19 2.96435 19 4V15L18.9893 15.2041C18.8938 16.1457 18.1457 16.8938 17.2041 16.9893L17 17H3L2.7959 16.9893C1.85435 16.8938 1.1062 16.1457 1.01074 15.2041L1 15V4C1 2.96435 1.78722 2.113 2.7959 2.01074L3 2H17L17.2041 2.01074ZM3 3.5C2.72386 3.5 2.5 3.72386 2.5 4V15C2.5 15.2761 2.72386 15.5 3 15.5H17C17.2761 15.5 17.5 15.2761 17.5 15V4C17.5 3.72386 17.2761 3.5 17 3.5H3ZM7.46191 9.44238C7.96604 9.49371 8.35938 9.91982 8.35938 10.4375V12.4375L8.35449 12.54C8.30316 13.0442 7.87705 13.4375 7.35938 13.4375H5.35938L5.25684 13.4326C4.75271 13.3813 4.35938 12.9552 4.35938 12.4375V10.4375C4.35938 9.88522 4.80709 9.4375 5.35938 9.4375H7.35938L7.46191 9.44238ZM15.0771 10.8398C15.4551 10.8785 15.75 11.1978 15.75 11.5859C15.75 11.9741 15.4551 12.2934 15.0771 12.332L15 12.3359H10.4453C10.0311 12.3359 9.69531 12.0002 9.69531 11.5859C9.69531 11.1717 10.0311 10.8359 10.4453 10.8359H15L15.0771 10.8398ZM5.75977 12.0371H6.95898V10.8379H5.75977V12.0371ZM7.31445 5.41797C7.60915 5.17793 8.04393 5.19504 8.31836 5.46973C8.59268 5.74442 8.60943 6.17921 8.36914 6.47363L8.31738 6.53027L6.53711 8.30859C6.24418 8.60125 5.76936 8.60139 5.47656 8.30859L4.39941 7.23145L4.34766 7.1748C4.10728 6.88026 4.12487 6.44554 4.39941 6.1709C4.67405 5.89627 5.10874 5.87875 5.40332 6.11914L5.45996 6.1709L6.00684 6.71777L7.25684 5.46973L7.31445 5.41797ZM15.0771 6.37891C15.4551 6.41753 15.75 6.73683 15.75 7.125C15.75 7.51317 15.4551 7.83247 15.0771 7.87109L15 7.875H10.4453C10.0311 7.875 9.69531 7.53921 9.69531 7.125C9.69531 6.71079 10.0311 6.375 10.4453 6.375H15L15.0771 6.37891Z" fill="currentColor"/>
</svg>
