<svg xmlns="http://www.w3.org/2000/svg" viewBox="0 0 48 48">
  <path fill="#ffffff" d="M24,4C12.954,4,4,12.954,4,24c0,8.887,5.801,16.411,13.82,19.016c1.018,0.173,1.399-0.445,1.399-0.989
    c0-0.484-0.007-1.777-0.012-3.49c-5.593,1.215-6.776-2.701-6.776-2.701C11.698,33.818,10.388,33,10.388,33
    c-1.825-1.245,0.138-1.225,0.138-1.225c2.019,0.142,3.079,2.07,3.079,2.07c1.791,3.075,4.699,2.186,5.852,1.672
    c0.183-1.296,0.702-2.186,1.278-2.69c-4.463-0.508-9.154-2.232-9.154-9.931c0-2.193,0.783-3.986,2.072-5.391
    c-0.208-0.509-0.899-2.551,0.195-5.317c0,0,1.69-0.542,5.535,2.064c1.604-0.446,3.323-0.67,5.032-0.678
    c1.709,0.008,3.428,0.231,5.035,0.677c3.843-2.606,5.532-2.064,5.532-2.064c1.096,2.766,0.406,4.808,0.198,5.317
    c1.292,1.405,2.07,3.198,2.07,5.391c0,7.716-4.697,9.418-9.169,9.916c0.722,0.618,1.365,1.846,1.365,3.721
    c0,2.691-0.025,4.863-0.025,5.523c0,0.539,0.368,1.162,1.409,0.967C38.204,40.408,44,32.885,44,24C44,12.954,35.046,4,24,4z"/>
  <circle cx="24" cy="24" r="20" fill="none" stroke="#8b949e" stroke-width="2"/>
</svg>